PathFileType	4	(X/Y/Z)	C:\Users\Basilio\Documents\Thesis Gigler\squatting_fais\c3dfiles\038\SLS_back_pre2\markers_experimental.trc
DataRate	CameraRate	NumFrames	NumMarkers	Units	OrigDataRate	OrigDataStartFrame	OrigNumFrames
200.000000	200.000000	4	63	mm	200.000000	223	1791
Frame#	Time	FHD			LBHD			RBHD			C7			T10			CLAV			LSHO			LUUPA			LMUPA			LDUPA			LLEP			LMEP			LRAD			LUL			LRFIN			RSHO			RUPA1			RMUPA			RDUPA			RLEP			RMEP			RRAD			RUL			RUFIN			LASI			RASI			USACR			LSACR			RSACR			LTHI1			LTHI2			LTHI3			LTHI4			LLFC			LMFC			LTIB1			LTIB2			LTIB3			LTIB4			LLMAL			LMMAL			LHEE			LMT1			LMT2			LMT5			RTHI			RTHI2			RTHI3			RTHI4			RLFC			RMFC			RTIB1			RTIB2			RTIB3			RTIB4			RLMAL			RMMAL			RHEE			RMT1			RMT2			RMT5			*61			*62			
		X1	Y1	Z1	X2	Y2	Z2	X3	Y3	Z3	X4	Y4	Z4	X5	Y5	Z5	X6	Y6	Z6	X7	Y7	Z7	X8	Y8	Z8	X9	Y9	Z9	X10	Y10	Z10	X11	Y11	Z11	X12	Y12	Z12	X13	Y13	Z13	X14	Y14	Z14	X15	Y15	Z15	X16	Y16	Z16	X17	Y17	Z17	X18	Y18	Z18	X19	Y19	Z19	X20	Y20	Z20	X21	Y21	Z21	X22	Y22	Z22	X23	Y23	Z23	X24	Y24	Z24	X25	Y25	Z25	X26	Y26	Z26	X27	Y27	Z27	X28	Y28	Z28	X29	Y29	Z29	X30	Y30	Z30	X31	Y31	Z31	X32	Y32	Z32	X33	Y33	Z33	X34	Y34	Z34	X35	Y35	Z35	X36	Y36	Z36	X37	Y37	Z37	X38	Y38	Z38	X39	Y39	Z39	X40	Y40	Z40	X41	Y41	Z41	X42	Y42	Z42	X43	Y43	Z43	X44	Y44	Z44	X45	Y45	Z45	X46	Y46	Z46	X47	Y47	Z47	X48	Y48	Z48	X49	Y49	Z49	X50	Y50	Z50	X51	Y51	Z51	X52	Y52	Z52	X53	Y53	Z53	X54	Y54	Z54	X55	Y55	Z55	X56	Y56	Z56	X57	Y57	Z57	X58	Y58	Z58	X59	Y59	Z59	X60	Y60	Z60	X61	Y61	Z61	X62	Y62	Z62	X63	Y63	Z63	

224	1.115	-108.6098175048828	1699.409545898438	-984.8902587890627	-270.3921203613282	1726.386352539063	-1042.733032226563	-265.8432006835938	1714.488037109375	-897.707702636719	-387.2945556640626	1556.961791992188	-965.337341308594	-396.2898254394532	1262.693237304688	-953.3917236328127	-252.576889038086	1514.709106445313	-978.7902832031252	-341.5779113769532	1556.137451171875	-1139.732055664063	-406.2483825683595	1319.44775390625	-1217.500854492188	-358.3260498046876	1304.608032226563	-1221.414916992188	-388.757781982422	1253.172729492188	-1227.039916992188	-374.4099121093751	1195.376220703125	-1230.912231445313	-401.8088378906251	1171.796752929688	-1162.544189453125	-215.5375976562501	946.4036865234377	-1178.942260742188	-266.9751892089844	926.902282714844	-1225.978393554688	-170.7725524902344	877.5186157226565	-1196.242065429688	-311.0074768066407	1547.41796875	-806.8776855468752	-348.8449707031251	1344.582763671875	-694.6187133789064	-312.1427307128907	1314.21533203125	-703.5755004882814	-351.0947570800782	1277.131103515625	-677.5501708984376	-344.5910034179688	1203.438720703125	-663.1802368164064	-388.4672851562501	1179.230224609375	-725.9238891601564	-205.2791900634766	960.8312988281252	-713.7306518554689	-247.8273468017579	937.668640136719	-660.7152099609376	-158.7069854736328	891.144714355469	-685.3397216796876	-225.5695800781251	1071.452392578125	-1071.761962890625	-227.4039764404297	1088.47509765625	-818.7720947265627	-396.4474182128907	1127.358642578125	-946.042663574219	-409.3484191894532	1097.493774414063	-972.9683837890627	-407.8418273925782	1099.920532226563	-916.375427246094	-274.8681640625001	750.0618286132814	-1115.433471679688	-247.0919342041016	669.8320312500001	-1106.938232421875	-201.5589141845704	674.5044555664064	-1083.734619140625	-276.8333129882813	621.9993896484376	-1087.032348632813	-274.5407409667969	560.3902587890626	-1078.136596679688	-262.4802246093751	552.4832763671876	-958.563659667969	-256.8759460449219	369.3236389160157	-1007.520080566406	-304.6014404296876	331.7273254394532	-1073.189453125	-270.1626586914063	323.5036926269532	-1044.293579101563	-288.8909301757813	245.6609954833985	-1016.2626953125	-382.9684143066407	120.4669342041016	-1035.780517578125	-344.9817810058594	134.1140289306641	-966.0704345703127	-432.983856201172	100.7881011962891	-981.8674316406252	-234.4503936767579	48.7579803466797	-975.639343261719	-226.4180145263672	47.04827117919923	-1026.269897460938	-271.8928833007813	35.10592651367188	-1073.35400390625	-287.2852478027344	813.9022216796877	-757.9307861328126	-254.5354614257813	755.5352172851564	-754.1217041015626	-221.4692687988282	755.0673828125001	-759.7633666992189	-288.0408325195313	678.2876586914064	-772.444274902344	-282.1649169921876	542.6920166015626	-781.203796386719	-283.3735656738282	541.4556884765626	-902.995056152344	-253.9483795166016	364.1744384765626	-807.6054687500002	-335.7015686035157	291.8905334472657	-767.9962768554689	-290.3592529296876	290.4932861328126	-779.6426391601565	-285.7972412109376	238.8967590332032	-809.5041503906252	-359.9389038085938	123.0056076049805	-777.937927246094	-332.0595397949219	130.7845306396485	-857.4341430664065	-424.1677856445314	92.9558792114258	-839.7612304687502	-212.4279327392579	50.07425689697267	-841.5120849609377	-212.7526092529297	48.2209930419922	-794.444763183594	-255.7512817382813	35.89981842041016	-749.0183105468751	nan	nan	nan	nan	nan	nan	
225	1.12	-108.9498672485352	1700.231323242188	-985.803649902344	-270.8497619628907	1726.089477539063	-1043.278076171875	-266.0465698242188	1714.50439453125	-898.3438110351565	-387.2975158691407	1556.980224609375	-965.9070434570315	-396.2881164550782	1262.689819335938	-953.8673095703127	-252.5106201171876	1514.616333007813	-979.521179199219	-341.5337829589844	1556.125122070313	-1140.424926757813	-406.1322631835939	1319.5078125	-1218.272827148438	-358.0312500000001	1305.014526367188	-1222.345458984375	-388.6333312988282	1253.332397460938	-1227.9638671875	-374.4591369628907	1195.346069335938	-1231.901611328125	-401.9176635742189	1171.790771484375	-1163.495727539063	-215.6982879638672	946.2678833007815	-1179.797119140625	-267.1822204589844	926.8612060546877	-1226.91650390625	-170.8643341064453	877.5394287109377	-1197.486572265625	-311.0267333984376	1547.366455078125	-807.5527343750002	-348.8027954101563	1344.632690429688	-695.3253784179689	-311.9692687988282	1314.176513671875	-704.4039306640626	-350.9857482910157	1277.113159179688	-678.2028198242189	-344.5701293945313	1203.43359375	-663.8790893554689	-388.5009765625001	1179.1826171875	-726.4612426757814	-205.4125671386719	960.7058105468752	-714.6655883789064	-247.8174743652344	937.5449218750002	-661.4821166992189	-158.8587188720703	891.0905761718752	-686.1855468750001	-225.761459350586	1071.340087890625	-1072.122802734375	-227.4646759033204	1088.563720703125	-819.1314697265627	-396.597381591797	1127.311157226563	-946.4901123046877	-409.4553833007814	1097.3603515625	-973.3529052734377	-408.0218505859376	1099.812744140625	-916.7051391601565	-274.8579711914063	749.9447021484376	-1115.987426757813	-247.0021972656251	669.8018798828126	-1107.25146484375	-201.5416564941407	674.4348754882814	-1084.076171875	-276.7264404296876	621.8970947265626	-1087.297973632813	-274.4541931152344	560.3234863281251	-1078.390380859375	-262.2338867187501	552.4594116210939	-958.8142700195315	-256.7765808105469	369.3115844726563	-1007.785705566406	-304.5200500488282	331.6436462402344	-1073.345825195313	-270.0640869140626	323.4562683105469	-1044.5146484375	-288.8080444335938	245.5413360595704	-1016.378723144531	-382.8787841796876	120.4364166259766	-1035.759887695313	-344.9353332519532	134.0881500244141	-966.049255371094	-432.9118041992189	100.8049468994141	-981.8864746093752	-234.3951721191407	48.69963836669923	-975.613708496094	-226.3900909423829	47.09477996826173	-1026.247924804688	-271.8849487304688	35.08622360229493	-1073.351684570313	-287.1009521484376	813.9436035156252	-758.2604370117189	-254.3301239013672	755.5667724609376	-754.2871704101564	-221.1802520751954	755.1979370117189	-759.9630737304689	-287.6781005859376	678.3261108398439	-772.6792602539065	-281.8172912597657	542.6511840820314	-781.4172363281252	-283.0825500488282	541.4003295898439	-903.1722412109377	-253.6400299072266	364.1448974609376	-807.6939086914065	-335.5368041992188	291.9975280761719	-768.0556640625002	-290.2086181640626	290.4944152832032	-779.7673339843752	-285.6139831542969	238.9544677734376	-809.521179199219	-359.8950500488282	123.0743103027344	-777.915954589844	-332.3395385742188	131.1617584228516	-857.5247802734377	-424.0857238769532	93.01187133789064	-839.8107910156252	-212.441146850586	50.07654953002931	-841.4978637695315	-212.7579956054688	48.22459411621095	-794.4451904296877	-255.759262084961	35.89999771118165	-749.0225830078126	nan	nan	nan	nan	nan	nan	
226	1.125	-109.123031616211	1700.41943359375	-986.439880371094	-270.9389343261719	1726.102172851563	-1043.974609375	-266.3342895507813	1714.4033203125	-898.8616333007815	-387.3041381835939	1556.879760742188	-966.582702636719	-396.3528137207032	1262.689575195313	-954.3326416015627	-252.4299468994141	1514.607421875	-980.3005981445315	-341.3247680664063	1556.108520507813	-1141.137084960938	-406.0045471191407	1319.531127929688	-1219.265747070313	-358.0253295898438	1305.001586914063	-1223.049438476563	-388.4479064941407	1253.349487304688	-1228.863525390625	-374.2865295410157	1195.458251953125	-1232.815185546875	-401.9340209960939	1171.8974609375	-1164.56396484375	-215.8639831542969	946.1164550781252	-1180.744506835938	-267.2879333496094	926.8155517578127	-1227.9228515625	-171.0406188964844	877.4295043945315	-1198.461059570313	-310.8910827636719	1547.238891601563	-808.2396240234377	-348.7461547851563	1344.55712890625	-695.8810424804689	-311.8865051269532	1314.158935546875	-705.0137329101564	-350.9667663574219	1277.03759765625	-678.8865966796876	-344.5510253906251	1203.386474609375	-664.4851684570314	-388.4869079589845	1179.145751953125	-727.0319824218751	-205.4799041748047	960.688171386719	-715.5516357421876	-247.8223114013672	937.532897949219	-662.1973266601564	-159.2630157470703	890.6094360351565	-687.4669799804689	-226.0256042480469	1071.210571289063	-1072.486572265625	-227.5264739990235	1088.643432617188	-819.6137695312502	-396.5936584472657	1127.564697265625	-946.9189453125002	-409.5559387207032	1097.249145507813	-973.693298339844	-407.996063232422	1099.681762695313	-917.0332641601565	-274.8409423828126	749.8418579101564	-1116.31982421875	-247.0591583251954	669.7806396484376	-1107.58203125	-201.4796295166016	674.3182983398439	-1084.46630859375	-276.6063842773438	621.7778930664064	-1087.587280273438	-274.3942565917969	560.2094116210939	-1078.617553710938	-262.1604309082032	552.4895019531251	-959.1560058593752	-256.5995483398438	369.2245788574219	-1007.929077148438	-304.4719848632813	331.5634765625001	-1073.447998046875	-269.9452514648438	323.3890075683594	-1044.660766601563	-288.8027954101563	245.4674530029297	-1016.447570800781	-382.8707885742188	120.4100189208985	-1035.71142578125	-344.9678955078126	134.0663452148438	-966.063171386719	-432.9391479492189	100.7253723144532	-981.8393554687502	-234.4054107666016	48.66389083862306	-975.6475219726565	-226.3982086181641	47.05304336547852	-1026.269165039063	-271.8971557617188	35.10121536254884	-1073.374389648438	-286.8279724121094	813.9522094726565	-758.5760498046876	-253.6164703369141	755.9594116210939	-754.0826416015626	-220.9415588378907	755.2954101562501	-760.1890869140626	-287.3301696777344	678.3315429687501	-772.8698730468752	-281.2980957031251	543.0180053710939	-781.625183105469	-282.6679382324219	541.4014282226564	-903.3267211914065	-253.2633361816407	364.4881591796876	-807.6403808593752	-335.3577270507813	292.0310058593751	-768.1051025390627	-289.9629211425782	290.5602722167969	-779.836364746094	-285.3695983886719	238.9103393554688	-809.6470336914065	-359.7699584960938	123.1526565551758	-777.9124145507815	-331.8863830566407	130.9470825195313	-857.4572753906252	-424.0882263183595	93.04666900634767	-839.7837524414065	-212.4037475585938	50.04917526245119	-841.5064697265627	-212.7704162597657	48.26611709594728	-794.4517822265627	-255.7384796142579	35.88832473754884	-749.0657348632814	nan	nan	nan	nan	nan	nan	
227	1.13	-109.1419372558594	1700.602783203125	-986.8745727539065	-270.8916931152344	1726.396850585938	-1044.629028320313	-266.5521545410157	1714.309326171875	-899.5071411132815	-387.3044738769532	1556.820678710938	-967.3836669921877	-396.5499572753907	1262.67626953125	-954.7710571289065	-252.3839569091797	1514.5673828125	-980.962341308594	-341.9224853515626	1556.08544921875	-1142.126831054688	-405.9848022460939	1319.602416992188	-1220.11474609375	-358.0637207031251	1305.035522460938	-1223.81494140625	-388.3953857421876	1253.382568359375	-1229.70556640625	-374.1629028320313	1195.505493164063	-1233.896118164063	-401.9567871093751	1171.916137695313	-1165.527099609375	-215.8479919433594	946.3475341796877	-1182.108642578125	-267.3214111328126	926.8200683593752	-1229.25732421875	-171.3315582275391	877.2217407226565	-1199.2353515625	-310.5839538574219	1547.132690429688	-808.9661254882815	-348.6466979980469	1344.469970703125	-696.4334716796876	-311.9509277343751	1314.069946289063	-705.5410766601564	-350.9779052734376	1276.949340820313	-679.5668945312501	-344.5493774414063	1203.367309570313	-664.9849853515626	-388.507537841797	1179.12109375	-727.6171264648439	-205.6847381591797	960.6512451171877	-716.3013916015626	-247.7720642089844	937.3496093750002	-662.9288940429689	-158.7947540283203	891.082458496094	-688.0487060546876	-226.3227996826172	1071.136840820313	-1072.880249023438	-227.5272521972657	1088.65625	-820.1223144531252	-396.710174560547	1127.391479492188	-947.260925292969	-409.7564392089845	1097.087768554688	-974.060729980469	-407.8855895996095	1099.569580078125	-917.2820434570315	-274.8200683593751	749.7339477539064	-1116.636352539063	-247.0474395751954	669.6817016601564	-1107.879760742188	-201.4358215332032	674.2464599609376	-1084.840576171875	-276.5536804199219	621.6315307617189	-1087.842041015625	-274.3108215332032	560.1256713867189	-1078.884887695313	-261.9959411621094	552.3922729492189	-959.3988037109377	-256.4820861816407	369.1184387207032	-1008.138671875	-304.4031372070313	331.4952392578126	-1073.56201171875	-269.8395690917969	323.4390563964844	-1044.8564453125	-288.8002319335938	245.4439697265626	-1016.537780761719	-382.8566589355469	120.394027709961	-1035.672485351563	-345.0282592773438	134.053695678711	-966.0713500976565	-432.9135131835939	100.7629013061524	-981.8691406250002	-234.3858489990235	48.68629074096681	-975.5987548828127	-226.3983001708985	47.05985641479493	-1026.302856445313	-271.8802185058594	35.06988143920899	-1073.360229492188	-286.5334777832032	813.9536743164065	-758.8710327148439	-253.6807556152344	755.5311889648439	-754.7841186523439	-220.7182922363282	755.4108886718751	-760.4056396484376	-286.9973449707032	678.2730712890626	-773.0596923828127	-280.7783508300782	543.0285644531251	-781.781188964844	-282.3090820312501	541.3713989257814	-903.4866333007815	-252.9314880371094	364.1618957519532	-807.929138183594	-335.0919494628907	292.1635742187501	-768.1836547851565	-289.6792907714844	290.6286315917969	-779.8975830078127	-285.1501159667969	238.9215240478516	-809.7464599609377	-359.7510375976563	123.2125244140625	-777.9337158203127	-331.8352050781251	131.02392578125	-857.4968261718752	-424.0389709472657	93.03874969482423	-839.8120117187502	-212.3179168701172	49.79768753051759	-841.6414184570315	-212.5789794921876	48.3706398010254	-794.2940063476565	-255.7431182861329	35.88158035278321	-749.0809936523439	nan	nan	nan	nan	nan	nan	
